<?xml version="1.0" encoding="UTF-8" standalone="no"?>
<svg xmlns="http://www.w3.org/2000/svg" version="1.2" baseProfile="tiny" viewBox="0.00 0.00 100.00 100.00">
<path fill="#ffffff" d="
  M 46.92 0.00
  L 53.48 0.00
  Q 56.56 0.44 59.60 0.98
  C 78.78 4.43 93.31 19.20 98.48 37.48
  Q 98.99 39.28 100.00 46.64
  L 100.00 53.46
  Q 96.40 84.56 68.50 96.44
  Q 62.14 99.14 53.35 100.00
  L 46.54 100.00
  Q 17.79 96.84 5.08 71.93
  Q 0.97 63.87 0.00 53.34
  L 0.00 46.54
  Q 1.10 34.69 6.44 25.50
  Q 19.71 2.67 46.92 0.00
  Z
  M 89.78 52.36
  Q 89.87 55.52 89.15 58.47
  Q 83.94 79.81 64.42 87.89
  Q 51.86 93.09 39.38 89.47
  Q 16.71 82.90 10.58 59.99
  C 9.41 55.63 9.37 49.44 9.78 45.52
  Q 10.82 35.66 16.73 27.50
  C 27.42 12.75 44.88 6.76 62.52 12.34
  Q 63.06 12.51 63.21 13.05
  C 64.04 16.18 67.46 17.52 70.00 15.34
  C 73.75 12.12 69.77 7.02 65.87 8.41
  C 65.03 8.71 64.47 9.48 63.64 9.83
  A 1.06 1.05 43.4 0 1 62.85 9.85
  Q 58.50 8.26 53.26 7.90
  Q 34.21 6.60 20.72 18.92
  Q 5.89 32.46 6.99 53.62
  C 7.94 71.94 21.70 88.08 39.46 92.18
  Q 49.67 94.54 59.11 92.28
  Q 68.98 89.91 76.54 83.87
  Q 91.73 71.73 92.62 50.80
  A 1.52 1.52 0.0 0 0 91.11 49.22
  L 68.40 49.17
  A 1.80 1.79 -18.9 0 1 67.02 48.50
  C 64.93 45.85 61.21 45.35 59.52 48.65
  C 57.67 52.23 61.29 55.70 64.91 54.36
  C 66.74 53.67 66.63 51.70 68.98 51.73
  Q 78.95 51.86 89.11 51.71
  Q 89.77 51.71 89.78 52.36
  Z
  M 81.17 58.98
  Q 82.09 58.98 81.79 59.85
  Q 76.88 74.13 64.25 80.47
  C 51.00 87.13 35.55 84.13 25.39 73.54
  C 14.36 62.06 13.19 43.70 22.72 30.89
  Q 30.20 20.85 42.55 18.02
  Q 55.47 15.06 67.25 22.19
  A 0.83 0.83 0.0 0 1 67.65 22.95
  C 67.38 27.78 73.53 29.50 75.69 24.98
  C 77.30 21.62 72.85 18.27 69.80 19.98
  Q 69.18 20.32 68.56 19.97
  Q 54.15 11.63 38.52 16.49
  C 18.45 22.72 7.49 46.36 17.10 65.79
  C 32.37 96.68 76.74 91.94 84.77 58.04
  A 1.14 1.13 6.9 0 0 83.67 56.65
  Q 68.37 56.50 52.70 56.43
  C 51.54 56.43 50.96 55.67 50.12 55.01
  C 45.17 51.13 40.13 60.23 46.69 62.31
  C 49.22 63.12 50.54 61.40 51.95 59.48
  Q 52.26 59.06 52.78 59.06
  L 81.17 58.98
  Z
  M 69.30 67.24
  A 0.42 0.41 21.4 0 1 69.61 67.94
  C 64.51 73.32 57.48 77.07 49.96 77.14
  C 36.63 77.26 24.68 66.96 23.59 53.51
  C 22.22 36.77 33.93 24.23 50.58 24.14
  Q 51.23 24.14 51.45 24.75
  C 52.96 28.89 58.25 28.76 59.51 24.36
  Q 60.10 22.32 58.80 21.01
  Q 55.40 17.54 52.08 21.06
  Q 51.70 21.47 51.15 21.55
  Q 49.75 21.75 48.33 21.73
  C 41.18 21.63 33.67 25.35 29.00 30.24
  Q 19.41 40.25 20.67 53.54
  C 21.58 63.18 27.91 72.36 36.71 76.60
  C 50.15 83.07 65.10 78.63 73.84 66.64
  Q 74.39 65.89 73.65 65.33
  L 73.39 65.14
  A 1.20 1.20 0.0 0 0 72.67 64.90
  L 61.06 64.91
  A 1.42 1.39 -15.9 0 1 59.87 64.26
  C 57.86 61.10 53.96 60.21 52.00 63.98
  C 49.63 68.52 56.45 72.64 59.51 67.79
  A 0.91 0.90 15.4 0 1 60.26 67.37
  L 69.30 67.24
  Z"
/>
<path fill="#104c6b" d="
  M 89.11 51.71
  Q 78.95 51.86 68.98 51.73
  C 66.63 51.70 66.74 53.67 64.91 54.36
  C 61.29 55.70 57.67 52.23 59.52 48.65
  C 61.21 45.35 64.93 45.85 67.02 48.50
  A 1.80 1.79 -18.9 0 0 68.40 49.17
  L 91.11 49.22
  A 1.52 1.52 0.0 0 1 92.62 50.80
  Q 91.73 71.73 76.54 83.87
  Q 68.98 89.91 59.11 92.28
  Q 49.67 94.54 39.46 92.18
  C 21.70 88.08 7.94 71.94 6.99 53.62
  Q 5.89 32.46 20.72 18.92
  Q 34.21 6.60 53.26 7.90
  Q 58.50 8.26 62.85 9.85
  A 1.06 1.05 43.4 0 0 63.64 9.83
  C 64.47 9.48 65.03 8.71 65.87 8.41
  C 69.77 7.02 73.75 12.12 70.00 15.34
  C 67.46 17.52 64.04 16.18 63.21 13.05
  Q 63.06 12.51 62.52 12.34
  C 44.88 6.76 27.42 12.75 16.73 27.50
  Q 10.82 35.66 9.78 45.52
  C 9.37 49.44 9.41 55.63 10.58 59.99
  Q 16.71 82.90 39.38 89.47
  Q 51.86 93.09 64.42 87.89
  Q 83.94 79.81 89.15 58.47
  Q 89.87 55.52 89.78 52.36
  Q 89.77 51.71 89.11 51.71
  Z
  M 69.45 12.39
  A 2.12 2.12 0.0 0 0 67.33 10.27
  A 2.12 2.12 0.0 0 0 65.21 12.39
  A 2.12 2.12 0.0 0 0 67.33 14.51
  A 2.12 2.12 0.0 0 0 69.45 12.39
  Z
  M 65.49 50.56
  A 2.12 2.12 0.0 0 0 63.37 48.44
  A 2.12 2.12 0.0 0 0 61.25 50.56
  A 2.12 2.12 0.0 0 0 63.37 52.68
  A 2.12 2.12 0.0 0 0 65.49 50.56
  Z"
/>
<circle fill="#ffffff" cx="67.33" cy="12.39" r="2.12"/>
<path fill="#1484b7" d="
  M 81.17 58.98
  L 52.78 59.06
  Q 52.26 59.06 51.95 59.48
  C 50.54 61.40 49.22 63.12 46.69 62.31
  C 40.13 60.23 45.17 51.13 50.12 55.01
  C 50.96 55.67 51.54 56.43 52.70 56.43
  Q 68.37 56.50 83.67 56.65
  A 1.14 1.13 6.9 0 1 84.77 58.04
  C 76.74 91.94 32.37 96.68 17.10 65.79
  C 7.49 46.36 18.45 22.72 38.52 16.49
  Q 54.15 11.63 68.56 19.97
  Q 69.18 20.32 69.80 19.98
  C 72.85 18.27 77.30 21.62 75.69 24.98
  C 73.53 29.50 67.38 27.78 67.65 22.95
  A 0.83 0.83 0.0 0 0 67.25 22.19
  Q 55.47 15.06 42.55 18.02
  Q 30.20 20.85 22.72 30.89
  C 13.19 43.70 14.36 62.06 25.39 73.54
  C 35.55 84.13 51.00 87.13 64.25 80.47
  Q 76.88 74.13 81.79 59.85
  Q 82.09 58.98 81.17 58.98
  Z
  M 73.95 23.41
  A 2.16 2.16 0.0 0 0 71.79 21.25
  A 2.16 2.16 0.0 0 0 69.63 23.41
  A 2.16 2.16 0.0 0 0 71.79 25.57
  A 2.16 2.16 0.0 0 0 73.95 23.41
  Z
  M 49.93 58.27
  A 2.13 2.13 0.0 0 0 47.80 56.14
  A 2.13 2.13 0.0 0 0 45.67 58.27
  A 2.13 2.13 0.0 0 0 47.80 60.40
  A 2.13 2.13 0.0 0 0 49.93 58.27
  Z"
/>
<path fill="#104c6b" d="
  M 69.30 67.24
  L 60.26 67.37
  A 0.91 0.90 15.4 0 0 59.51 67.79
  C 56.45 72.64 49.63 68.52 52.00 63.98
  C 53.96 60.21 57.86 61.10 59.87 64.26
  A 1.42 1.39 -15.9 0 0 61.06 64.91
  L 72.67 64.90
  A 1.20 1.20 0.0 0 1 73.39 65.14
  L 73.65 65.33
  Q 74.39 65.89 73.84 66.64
  C 65.10 78.63 50.15 83.07 36.71 76.60
  C 27.91 72.36 21.58 63.18 20.67 53.54
  Q 19.41 40.25 29.00 30.24
  C 33.67 25.35 41.18 21.63 48.33 21.73
  Q 49.75 21.75 51.15 21.55
  Q 51.70 21.47 52.08 21.06
  Q 55.40 17.54 58.80 21.01
  Q 60.10 22.32 59.51 24.36
  C 58.25 28.76 52.96 28.89 51.45 24.75
  Q 51.23 24.14 50.58 24.14
  C 33.93 24.23 22.22 36.77 23.59 53.51
  C 24.68 66.96 36.63 77.26 49.96 77.14
  C 57.48 77.07 64.51 73.32 69.61 67.94
  A 0.42 0.41 21.4 0 0 69.30 67.24
  Z
  M 57.55 23.56
  A 2.11 2.11 0.0 0 0 55.44 21.45
  A 2.11 2.11 0.0 0 0 53.33 23.56
  A 2.11 2.11 0.0 0 0 55.44 25.67
  A 2.11 2.11 0.0 0 0 57.55 23.56
  Z
  M 57.91 65.77
  A 2.08 2.08 0.0 0 0 55.83 63.69
  A 2.08 2.08 0.0 0 0 53.75 65.77
  A 2.08 2.08 0.0 0 0 55.83 67.85
  A 2.08 2.08 0.0 0 0 57.91 65.77
  Z"
/>
<circle fill="#ffffff" cx="71.79" cy="23.41" r="2.16"/>
<circle fill="#ffffff" cx="55.44" cy="23.56" r="2.11"/>
<circle fill="#ffffff" cx="63.37" cy="50.56" r="2.12"/>
<circle fill="#ffffff" cx="47.80" cy="58.27" r="2.13"/>
<circle fill="#ffffff" cx="55.83" cy="65.77" r="2.08"/>
</svg>
